<svg width="27" height="25" viewBox="0 0 27 25" fill="none" xmlns="http://www.w3.org/2000/svg">
<g clip-path="url(#clip0_9_37)">
<path d="M13.5 0.623932C6.04415 0.623932 0 5.94485 0 12.5085C0 19.0722 6.04415 24.3932 13.5 24.3932C20.9558 24.3932 27 19.0722 27 12.5085C27 5.94485 20.9558 0.623932 13.5 0.623932ZM13.5 16.2616C11.1455 16.2616 9.23685 14.5813 9.23685 12.5085C9.23685 10.4358 11.1455 8.75552 13.5 8.75552C15.8545 8.75552 17.7632 10.4358 17.7632 12.5085C17.7632 14.5813 15.8545 16.2616 13.5 16.2616Z" fill="#D8D8DA"/>
<path d="M14.921 9.38104H26.5266C25.5809 6.3214 23.2826 3.75265 20.231 2.2044L12.079 9.38104H14.921Z" fill="#D4B6E6"/>
<path d="M12.079 9.38103L20.231 2.2044C18.2497 1.19913 15.9512 0.623932 13.5 0.623932C12.2703 0.623932 11.0795 0.769472 9.94739 1.04073V11.2575L12.079 9.38103Z" fill="#EBAFD1"/>
<path d="M9.9474 11.2576V1.04073C6.47189 1.87321 3.55399 3.89652 1.79535 6.58295L9.94735 13.7596V11.2576H9.9474Z" fill="#E07188"/>
<path d="M9.94739 11.2576L12.079 9.38108H14.921V9.38103H12.079L9.94739 11.2576Z" fill="#D8D8DA"/>
<path d="M12.079 15.636L9.94739 13.7595L12.079 15.6361H14.921L17.0526 13.7595L14.921 15.636H12.079Z" fill="#D8D8DA"/>
<path d="M26.5266 9.38103H14.921L14.9715 9.38108L17.0526 11.2576L25.2046 18.4341C26.3467 16.6899 27 14.6664 27 12.5085C27 11.426 26.8347 10.3776 26.5266 9.38103Z" fill="#B4D8F1"/>
<path d="M17.0526 13.7595V23.9764C20.5281 23.1439 23.446 21.1205 25.2046 18.4341L17.0526 11.2575V13.7595Z" fill="#ACFFF4"/>
<path d="M14.921 15.6361L6.76904 22.8127C8.75033 23.818 11.0488 24.3932 13.5 24.3932C14.7297 24.3932 15.9205 24.2476 17.0526 23.9764V13.7595L14.921 15.6361Z" fill="#95D5A7"/>
<path d="M12.079 15.6361H0.473358C1.4191 18.6957 3.71742 21.2644 6.769 22.8127L14.9211 15.6361H12.079Z" fill="#F8E99B"/>
<path d="M9.94739 13.7595L1.79534 6.58295C0.653326 8.3272 0 10.3507 0 12.5085C0 13.5911 0.165322 14.6395 0.473344 15.6361H12.0789L9.94739 13.7595Z" fill="#EFC27B"/>
<path d="M14.9715 9.38108H14.921L17.0526 11.2575L14.9715 9.38108Z" fill="#D8D8DA"/>
<path d="M26.5267 9.38104C25.5809 6.3214 23.2826 3.75265 20.231 2.2044L13.5 8.13V9.38099H14.921H26.5267V9.38104Z" fill="#B681D5"/>
<path d="M20.231 2.2044C18.2497 1.19913 15.9512 0.623932 13.5 0.623932V8.12999L20.231 2.2044Z" fill="#E592BF"/>
<path d="M13.5 16.8871V24.3932C14.7297 24.3932 15.9205 24.2476 17.0526 23.9764V13.7595L14.921 15.6361L13.5 16.8871Z" fill="#80CB93"/>
<path d="M14.921 15.6361H13.5V16.8871L14.921 15.6361Z" fill="#F6E27D"/>
</g>
<defs>
<clipPath id="clip0_9_37">
<rect width="27" height="23.7692" fill="white" transform="translate(0 0.623932)"/>
</clipPath>
</defs>
</svg>
