<svg width="30" height="30" viewBox="0 0 30 30" fill="none" xmlns="http://www.w3.org/2000/svg">
<g clip-path="url(#clip0_9_91)">
<path fill-rule="evenodd" clip-rule="evenodd" d="M24.465 9.37969C24.4941 9.38344 24.5241 9.38625 24.5531 9.39187C24.8166 9.44344 25.0547 9.61312 25.1897 9.8475C25.2637 9.97781 25.3059 10.125 25.3116 10.275C25.3125 10.305 25.3116 10.335 25.3106 10.3641C25.0153 15.6966 24.7247 21.0281 24.4228 26.3597C24.3928 26.8463 24.1687 27.3131 23.8116 27.6375C23.4712 27.9469 23.0166 28.1231 22.5562 28.125C17.5191 28.1325 12.4809 28.1325 7.44375 28.125C6.97219 28.1231 6.50719 27.9375 6.165 27.6159C5.81906 27.2906 5.60438 26.8294 5.57719 26.355L4.68938 10.3641C4.68844 10.335 4.6875 10.305 4.68844 10.275C4.69875 10.0059 4.83188 9.74437 5.04281 9.5775C5.18344 9.46594 5.35688 9.39656 5.535 9.37969C5.565 9.37688 5.595 9.37688 5.625 9.375H24.375C24.405 9.37688 24.435 9.37781 24.465 9.37969Z" fill="#D9D9D9"/>
<path fill-rule="evenodd" clip-rule="evenodd" d="M15 9.375H24.375C24.405 9.37688 24.435 9.37781 24.465 9.37969C24.4941 9.38344 24.5241 9.38625 24.5531 9.39187C24.8166 9.44344 25.0547 9.61312 25.1897 9.8475C25.2637 9.97781 25.3059 10.125 25.3116 10.275C25.3125 10.305 25.3116 10.335 25.3106 10.3641C25.0153 15.6966 24.7247 21.0281 24.4228 26.3597C24.3928 26.8463 24.1687 27.3131 23.8116 27.6375C23.4712 27.9469 23.0166 28.1231 22.5562 28.125C20.0381 28.1288 17.5191 28.1306 15 28.1306V9.375Z" fill="#B3B3B3"/>
<path d="M12.1875 5.61844V4.68656C12.1884 3.93 12.5081 3.17719 13.0594 2.65219C13.5459 2.18813 14.205 1.90781 14.8744 1.87781C14.9194 1.87594 14.9634 1.875 15.0094 1.875C15.7369 1.87875 16.4513 2.17125 16.9706 2.68125C17.5022 3.2025 17.8116 3.94125 17.8125 4.68656V5.61844C20.0016 5.61938 22.1916 5.62125 24.3806 5.625C24.8653 5.62688 25.3481 5.82563 25.6922 6.16594C26.0438 6.51281 26.2472 6.99656 26.25 7.49438C26.2509 8.12344 26.2509 8.75156 26.25 9.38063C26.2472 9.90375 26.0166 10.4194 25.6294 10.7691C25.29 11.0747 24.8363 11.2481 24.3806 11.25C18.1266 11.2594 11.8734 11.2594 5.61938 11.25C5.1075 11.2472 4.60313 11.0278 4.25438 10.6547C3.93563 10.3134 3.75188 9.84562 3.75 9.38063C3.74906 8.75156 3.74906 8.12344 3.75 7.49438C3.75281 6.88688 4.06688 6.285 4.58438 5.94C4.88813 5.7375 5.25 5.62688 5.61938 5.625C7.80844 5.62125 9.99844 5.61938 12.1875 5.61844ZM15.9375 5.6175C15.9375 5.30531 15.9394 4.99313 15.9375 4.68094C15.9347 4.38 15.7781 4.08469 15.5306 3.91406C15.3778 3.80906 15.1931 3.75188 15.0066 3.75C15.0028 3.75 15 3.75 14.9972 3.75C14.6944 3.75188 14.3963 3.90937 14.2256 4.15969C14.1197 4.31344 14.0625 4.5 14.0625 4.68844V5.6175H15H15.9375Z" fill="#E6E6E6"/>
<path d="M15 1.875H15.0094C15.7369 1.87875 16.4512 2.17125 16.9706 2.68125C17.5022 3.2025 17.8116 3.94125 17.8125 4.68656V5.61844C20.0016 5.61937 22.1916 5.62125 24.3806 5.625C24.8653 5.62687 25.3481 5.82563 25.6922 6.16594C26.0438 6.51281 26.2472 6.99656 26.25 7.49437C26.2509 8.12344 26.2509 8.75156 26.25 9.38062C26.2472 9.90375 26.0166 10.4194 25.6294 10.7691C25.29 11.0747 24.8363 11.2481 24.3806 11.25C21.2541 11.2547 18.1266 11.2575 15 11.2575V5.6175H15.9375C15.9375 5.30531 15.9394 4.99312 15.9375 4.68094C15.9347 4.38 15.7781 4.08469 15.5306 3.91406C15.3778 3.80906 15.1931 3.75188 15.0066 3.75H15V1.875Z" fill="#CCCCCC"/>
<path d="M9.46687 14.0672C9.49687 14.0719 9.52781 14.0747 9.55781 14.0803C9.88781 14.1459 10.1728 14.4009 10.2722 14.7281C10.29 14.7863 10.3022 14.8472 10.3078 14.9081C10.3106 14.9391 10.3106 14.9691 10.3125 15V22.5C10.3106 22.5309 10.3106 22.5609 10.3078 22.5919C10.2806 22.8666 10.1259 23.1263 9.89625 23.2791C9.59062 23.4834 9.16594 23.4872 8.85375 23.2791C8.65031 23.1431 8.50313 22.9238 8.45531 22.6828C8.43938 22.6022 8.44125 22.5816 8.4375 22.5V15C8.43938 14.9691 8.43938 14.9391 8.44219 14.9081C8.475 14.5734 8.70094 14.2641 9.01594 14.1338C9.10125 14.0991 9.19125 14.0756 9.28313 14.0672C9.34406 14.0606 9.40594 14.0644 9.46687 14.0672Z" fill="#4D4D4D"/>
<path d="M13.2169 13.1297C13.2469 13.1344 13.2778 13.1372 13.3078 13.1428C13.5487 13.1906 13.7681 13.3378 13.9041 13.5413C13.9894 13.6697 14.0428 13.8178 14.0578 13.9706C14.0606 14.0016 14.0606 14.0316 14.0625 14.0625V23.4375C14.0606 23.4684 14.0606 23.4984 14.0578 23.5294C14.0278 23.8341 13.8394 24.1191 13.5666 24.2644C13.2703 24.4228 12.8878 24.4069 12.6038 24.2166C12.4003 24.0806 12.2531 23.8613 12.2053 23.6203C12.1894 23.5397 12.1913 23.5191 12.1875 23.4375V14.0625C12.1894 14.0316 12.1894 14.0016 12.1922 13.9706C12.225 13.6359 12.4509 13.3266 12.7659 13.1963C12.8512 13.1616 12.9413 13.1381 13.0331 13.1297C13.0941 13.1231 13.1559 13.1269 13.2169 13.1297Z" fill="#4D4D4D"/>
<path d="M16.9669 13.1297C16.9969 13.1344 17.0278 13.1372 17.0578 13.1428C17.3878 13.2084 17.6728 13.4634 17.7722 13.7906C17.79 13.8488 17.8022 13.9097 17.8078 13.9706C17.8106 14.0016 17.8106 14.0316 17.8125 14.0625V23.4375C17.8106 23.4684 17.8106 23.4984 17.8078 23.5294C17.7778 23.8341 17.5894 24.1191 17.3166 24.2644C17.0203 24.4228 16.6378 24.4069 16.3538 24.2166C16.1503 24.0806 16.0031 23.8613 15.9553 23.6203C15.9394 23.5397 15.9413 23.5191 15.9375 23.4375V14.0625C15.9394 14.0316 15.9394 14.0016 15.9422 13.9706C15.975 13.6359 16.2009 13.3266 16.5159 13.1963C16.6013 13.1616 16.6913 13.1381 16.7831 13.1297C16.8441 13.1231 16.9059 13.1269 16.9669 13.1297Z" fill="#262626"/>
<path d="M20.7169 14.0672C20.7469 14.0719 20.7778 14.0747 20.8078 14.0803C21.1378 14.1459 21.4228 14.4009 21.5222 14.7281C21.54 14.7863 21.5522 14.8472 21.5578 14.9081C21.5606 14.9391 21.5606 14.9691 21.5625 15V22.5C21.5588 22.5816 21.5606 22.6022 21.5447 22.6828C21.4903 22.9538 21.3103 23.1966 21.0666 23.3269C20.8238 23.4563 20.5228 23.4722 20.2659 23.3663C19.9566 23.2378 19.7259 22.9331 19.6922 22.5919C19.6894 22.5609 19.6894 22.5309 19.6875 22.5V15C19.6894 14.9691 19.6894 14.9391 19.6922 14.9081C19.7278 14.5434 19.995 14.2116 20.3531 14.1028C20.4112 14.085 20.4722 14.0728 20.5331 14.0672C20.5941 14.0606 20.6559 14.0644 20.7169 14.0672Z" fill="#262626"/>
</g>
<defs>
<clipPath id="clip0_9_91">
<rect width="30" height="30" fill="white"/>
</clipPath>
</defs>
</svg>
